Patient4_TMGait_0pt6_02_right_14_EMG.mot
version=1
nRows=29
nColumns=33
inDegrees=no
endheader
time	1LAddLong	2LGlutMax	3LGlutMed	4LIliopsoas	5LSemiMemb	6LBicFemLong	7LRecFem	8LVastMed	9LVastLat	10LGasMed	11LTibAnt	12lTibPost	13LPeroneusLong	14LSol	15LExtDigLong	16LFlexDigLong	17RAddLong	18RGlutMax	19RGlutMed	20RIliopsoas	21RSemiMemb	22RBicFemLong	23RRecFem	24RVastMed	25RVastLat	26RGasMed	27RTibAnt	28RTibPost	29RPeroneusLong	30RSol	31RExtDigLong	32RFlexDigLong
17.895	0.002747	-0.06134	-0.057373	-0.011139	0.023804	0.008087	0.10346	0.003052	0.005188	-0.18188	0.010223	0.002899	-0.019989	0.12878	0.023193	-0.010834	-0.009766	-0.09552	0.060425	-0.003662	0.026703	0.17258	-0.027313	-0.003204	0.007935	0.007629	0.020752	-0.011444	0.32791	-0.046082	-0.003052	-0.009766
17.896	0.007477	-0.09201	0.021362	-0.010681	0.015106	0.013123	0.094299	0.003357	-0.036316	-0.083313	0.01236	0.000916	-0.11597	0.028229	0.083771	-0.007019	-0.016479	-0.11658	0.25345	-0.003204	0.36209	0.16998	-0.097351	-0.042572	0.014648	0.002594	0.003967	-0.01236	0.69244	-0.041046	0.000153	-0.001831
17.897	0.008545	-0.074615	0.035095	0.025024	0.015564	-0.005341	0.1033	0.006714	-0.065613	0.000305	0.006866	0.01358	-0.11444	-0.001984	0.11978	-0.012665	0.001221	-0.075378	0.6247	-0.020599	0.25711	0.054169	-0.06546	-0.048981	0.010986	0.002136	0.013275	-0.007629	0.71655	-0.080261	0	0.000153
17.898	0.010376	-0.079803	-0.068817	0.019073	0.015259	0.009766	0.11032	0.003815	-0.054474	-0.056458	0.007935	-0.002899	0.075531	0.046234	0.068665	-0.001526	0.005951	-0.14923	0.31479	-0.010986	0.063629	-0.021515	-0.043335	-0.13077	0.002594	0.003967	-0.054932	-0.01358	0.67215	-0.064545	-0.007782	0.000458
17.899	0.007935	-0.085907	-0.041046	0.014496	0.02533	0.02243	0.098419	-0.000153	-0.0354	-0.077057	0.02594	-0.065613	-0.080566	-0.005188	0.041046	-0.008545	0.013275	-0.18692	-0.18143	0.032501	-0.02594	-0.051575	-0.058594	-0.13886	-0.003967	-0.004272	-0.058136	-0.007019	0.30197	-0.054169	-0.002441	0
17.9	0.002594	-0.054932	-0.031738	0.020752	0.011292	0.05249	0.10574	-0.000458	-0.020752	-0.15213	0.043182	-0.29663	-0.21896	0.14587	0.016174	-0.007629	-0.002899	-0.12695	-0.33218	0.026855	-0.12528	-0.15961	-0.00824	-0.086517	-0.019226	0.001373	-0.020142	-0.012207	0.19547	-0.05722	-0.003052	0.000916
17.901	0.001831	-0.062103	-0.12131	0.021362	0.017548	0.063782	0.13489	0.002289	0.058746	-0.27161	0.034943	0.34836	0.23834	0.19226	-0.018768	0.055695	0.001526	-0.12909	-0.40405	0.003662	-0.16159	-0.21912	-0.007172	-0.11353	-0.0177	0.003815	0.027924	-0.011139	0.11566	-0.069427	-0.002594	-0.00824
17.902	0.009155	-0.095673	-0.052185	0.00351	0.018768	0.054474	0.13809	-0.002899	0.15335	-0.22705	0.01358	0.177	0.37582	0.21057	0.034485	0.00946	-0.007019	-0.10849	0.029449	-0.012207	0.025482	-0.22461	0.019073	-0.096893	0.00351	0.010681	0.075836	-0.01236	0.013275	-0.076141	0.000458	-0.003357
17.903	0.005341	-0.089417	0.041199	-0.019073	0.016632	0.038452	0.11429	-0.00351	0.092773	0.002441	0.01297	0.021057	0.02594	0.12558	0.093689	0.05127	-0.00946	-0.081024	0.3949	-0.040283	0.112	-0.24948	0.034332	-0.083771	0.012054	0.006561	0.1088	-0.009003	-0.1091	-0.059509	-0.000153	-0.008392
17.904	0.009918	-0.07782	-0.022888	-0.02594	0.02533	0.047302	0.089874	0.001221	0.045929	0.14908	-0.000305	-0.04303	0.22873	-0.1004	0.066376	-0.00412	0.022278	-0.091248	0.4837	-0.024109	0.14847	-0.21759	0.090027	-0.066986	0.020905	0.005188	0.14648	-0.006866	-0.16464	-0.026093	-0.000458	0.001831
17.905	0.014496	-0.074921	-0.013733	0.005646	-0.002899	0.009308	0.066833	0.002747	0.030212	0.18066	-0.018921	-0.044098	0.30823	-0.49606	-0.003815	-0.050964	0.032501	-0.12573	0.26138	0.016479	0.080261	-0.10147	0.061646	-0.029144	0.038757	0.006866	0.15152	-0.005951	0.023804	-0.05188	-0.003052	0.002136
17.906	0.013885	-0.063934	0.049744	0.002136	0.003662	-0.087738	0.092316	0.006256	0.010071	0.14069	-0.024414	0.000916	0.25314	-0.64026	0.01236	-0.032196	0.004578	-0.10498	-0.11658	-0.011597	-0.16464	0.063019	0.062408	-0.007782	0.037079	0.002594	0.1001	-0.00946	0.21179	-0.080414	-0.002136	0.000305
17.907	0.015717	-0.090332	0.006866	0.013123	0.010529	-0.12833	0.091858	0.001373	-0.035095	0.019226	-0.019073	0.032654	0.53345	-0.58548	-0.028076	-0.007172	-0.001068	-0.10132	-0.2684	-0.14801	-0.24826	0.12161	0.012817	-0.021667	0.016937	0.007324	0.059662	-0.010681	-0.14603	-0.10864	-0.002747	0.00824
17.908	0.007324	-0.084076	-0.057678	0.025635	-0.000305	-0.12558	0.093536	0.002289	-0.068359	0.045776	-0.014191	-0.007477	-0.29587	-0.49576	-0.019379	-0.011749	-0.007019	-0.1445	-0.058289	-0.16174	-0.02533	0.14755	0.005341	-0.024109	0.034637	0.003204	0.078583	-0.008392	-0.049744	-0.089874	-0.001984	-0.001526
17.909	0.00885	-0.095215	-0.065918	0.009003	0.008392	-0.12375	0.041504	0.004425	-0.065155	0.12146	-0.000763	-0.042267	-0.26489	-0.076141	-0.020142	-0.030365	-0.047302	-0.11597	0.074768	-0.082855	0.04837	0.2359	0.017395	-0.016327	0.020752	0.001068	0.089417	-0.008087	-0.17532	-0.032501	-0.008087	0.002594
17.91	0.007172	-0.081482	0.010071	-0.002899	0.004425	-0.12329	0.032196	0.005646	-0.011292	0.14648	-0.021057	-0.029602	-0.046692	0.04303	0.000763	-0.034637	-0.036774	-0.10941	0.11841	0.030823	0.13992	0.15366	0.033417	-0.009003	0.013885	-0.003662	0.19989	-0.014343	-0.43671	-0.10071	-0.002441	-0.008545
17.911	0.009308	-0.06546	0.034027	0.003815	0.00824	-0.11337	0.062103	0.00351	0.036163	0.094299	-0.038605	-0.016174	-0.03952	0.19775	-0.022278	-0.014343	-0.007477	-0.10727	0.048676	0.13794	0.041962	0.090179	0.033569	-0.044098	0.02121	-0.009003	0.29862	-0.014801	-0.15121	-0.049438	-0.003357	0.002747
17.912	0.009155	-0.068665	0.031281	0.012665	0.032043	-0.072327	0.06546	-0.00061	0.030518	0.063477	0.008087	-0.005188	-0.16205	0.33524	0.001068	0.019989	0.019684	-0.044403	0.1001	0.24216	-0.036774	0.064697	0.028229	-0.066528	0.026245	-0.011292	0.30884	-0.012207	0.066986	0.033417	-0.002441	0
17.913	0.006409	-0.058136	-0.026398	0.026245	0.027771	0.041962	0.073547	0.00061	0.016174	0.005493	0.023651	-0.007172	-0.1831	0.22201	-0.061951	0.045166	0.02533	-0.13779	0.031586	0.21866	-0.16373	0.063782	0.013275	-0.092316	0.001831	-0.019226	0.37262	-0.013733	0.015411	0.012817	-0.007019	-0.000153
17.914	0.002289	-0.064697	-0.080719	0.000916	0.019836	0.11749	0.089874	0.001221	0.002441	-0.024567	-0.016937	0.007019	0.071411	0.094604	-0.18845	0.027161	0.048065	-0.084381	-0.066986	0.075684	-0.091095	-0.006561	-0.000458	-0.050507	0.004425	-0.015717	0.13809	-0.019379	0.071259	-0.010529	-0.001831	-0.000916
17.915	0.008698	-0.034943	-0.092926	-0.006256	0.031891	0.069733	0.093689	-0.005951	-0.019531	-0.034637	-0.038757	0.001221	0.18402	0.15961	-0.16983	-0.012054	0.019989	-0.067291	-0.13962	0.037842	0.080719	0.027924	-0.049133	-0.000763	0.00885	-0.023041	-0.23987	-0.014191	0.06485	-0.018158	-0.003662	-0.001373
17.916	0.012817	-0.020294	-0.037689	-0.020752	0.067749	0.036774	0.10529	-0.00412	-0.027924	-0.007935	0.023193	-0.003357	-0.25024	0.093536	-0.17364	-1.201	0.02243	-0.038147	-0.11765	0.023804	0.13367	-0.000153	0.013275	-0.029144	0.001831	-0.023041	-0.32135	-0.017853	0.074158	-0.076141	-0.001526	-0.003357
17.917	0.007629	-0.02182	-0.046997	0.008392	0.075836	0.042267	0.097656	0.00473	-0.044556	-0.016785	0.050354	-0.013275	-0.056763	0.092926	-0.024109	0.83115	-0.003815	-0.024109	-0.031586	-0.004578	-0.036163	0.072327	-0.019684	-0.037231	0.021515	-0.027466	-0.37613	-0.015564	0.13229	-0.061951	-0.001526	0.004272
17.918	0.008392	-0.008087	0.068054	-0.001068	0.04715	0.070038	0.11917	0.003662	-0.035858	-0.051575	0.037537	-0.01358	0.12924	0.053406	0.10681	0.30945	0.001373	-0.034027	0.043182	0.040436	-0.14008	-0.10101	-0.032043	-0.041199	0.026245	-0.029755	-0.20813	-0.01709	0.17242	-0.049286	-0.000305	0.004883
17.919	0.003815	-0.042267	0.083618	0.012054	0.036163	0.051117	0.066833	0.009613	-0.04425	-0.024261	0.003967	-0.008087	0.070801	0.10956	0.11704	-0.12573	-0.00351	-0.025482	-0.055695	0.008087	-0.1796	-0.24902	-0.011749	-0.052795	0.035248	-0.031433	-0.070953	-0.01358	-0.023956	-0.055542	-0.003357	0.001678
17.92	0.006714	-0.03952	0.006714	0.017242	0.024414	0.047913	-0.015717	-0.000458	-0.062103	0.011292	0.025482	-0.010681	0.045776	0.011292	0.12405	-0.11734	-0.019531	-0.096741	0.031586	-0.009155	-0.037231	-0.14221	-0.067902	0.007172	0.031891	-0.029755	-0.019836	-0.018616	-0.08316	-0.045471	-0.003204	0.00412
17.921	0.011292	-0.043488	-0.021057	-0.002441	0.008392	0.031738	-0.035553	-0.010223	-0.059967	0.054779	0.015411	-0.003815	-0.022736	0.057526	0.076752	0.11063	-0.018311	-0.075531	-0.23025	-0.022583	-0.020142	-0.032654	-0.038605	0.066071	0.033875	-0.028992	0.052032	-0.016479	-0.75073	-0.063782	0.012665	-0.002289
17.922	0.010223	0.005493	-0.029755	0.00351	0.003967	0.006866	-0.014191	-0.007324	-0.047607	0.14954	0.001526	-0.006104	-0.1442	0.242	0.050354	-0.074158	0.007629	-0.06897	-0.58304	0.018616	-0.047607	0.06485	-0.045929	0.015564	0.026855	-0.028229	0.061646	-0.014191	-0.22675	-0.094299	0.001221	-0.000458
17.923	0.000916	-0.025177	-0.048065	0.010376	0.003052	0.01236	0.036163	-0.009918	-0.063171	0.49713	0.002289	-0.023193	-0.15549	0.23605	0.005035	0.34851	0.034485	-0.009918	-0.75058	0.004425	-0.051117	0.028687	-0.062408	-0.027466	0.040588	-0.018005	0.005646	-0.018768	0.041504	-0.094299	-0.001831	-0.001221
